<svg xmlns="http://www.w3.org/2000/svg" viewBox="0 0 512 512" role="img" aria-label="OpenDTV"><defs><linearGradient id="bg" x1="0" y1="0" x2="1" y2="1"><stop offset="0" stop-color="#071426"/><stop offset="1" stop-color="#12233f"/></linearGradient><linearGradient id="play" x1="0" y1="0" x2="1" y2="1"><stop offset="0" stop-color="#ff8a00"/><stop offset=".5" stop-color="#ff2d55"/><stop offset="1" stop-color="#7c3aed"/></linearGradient></defs><rect width="512" height="512" rx="112" fill="url(#bg)"/><g fill="none" stroke="#fff" stroke-linecap="round" stroke-linejoin="round"><path d="M126 164h260a52 52 0 0 1 52 52v124a52 52 0 0 1-52 52H126a52 52 0 0 1-52-52V216a52 52 0 0 1 52-52Z" stroke-width="28"/><path d="m188 84 54 80m82-80-54 80" stroke-width="22"/><path d="M190 430h132" stroke-width="24"/></g><path d="M220 226v106l94-53-94-53Z" fill="url(#play)"/></svg>