<svg xmlns="http://www.w3.org/2000/svg" viewBox="0 0 560 120" role="img" aria-labelledby="title desc"><title id="title">OpenDTV</title><desc id="desc">电视与播放按钮组成的 OpenDTV 品牌标志</desc><defs><linearGradient id="play" x1="0" y1="0" x2="1" y2="1"><stop offset="0" stop-color="#ff8a00"/><stop offset=".5" stop-color="#ff2d55"/><stop offset="1" stop-color="#7c3aed"/></linearGradient><linearGradient id="dtv" x1="0" y1="0" x2="1" y2="0"><stop offset="0" stop-color="#ff4d3d"/><stop offset=".5" stop-color="#ff2d8d"/><stop offset="1" stop-color="#7c3aed"/></linearGradient></defs><g fill="none" stroke="#0d1b2a" stroke-linecap="round" stroke-linejoin="round"><path d="M34 38h82a18 18 0 0 1 18 18v38a18 18 0 0 1-18 18H34A18 18 0 0 1 16 94V56a18 18 0 0 1 18-18Z" stroke-width="10"/><path d="m55 18 17 20m30-20L85 38" stroke-width="7"/><path d="M52 118h46" stroke-width="7"/></g><path d="M62 58v34l31-17-31-17Z" fill="url(#play)"/><text x="154" y="87" font-family="Inter,Arial,sans-serif" font-size="64" font-weight="800" fill="#0d1b2a">Open</text><text x="328" y="87" font-family="Inter,Arial,sans-serif" font-size="64" font-weight="800" fill="url(#dtv)">DTV</text></svg>